<?xml version="1.0" standalone="no"?><!DOCTYPE svg PUBLIC "-//W3C//DTD SVG 1.1//EN" "http://www.w3.org/Graphics/SVG/1.1/DTD/svg11.dtd"><svg t="1612590101581" class="icon" viewBox="0 0 1111 1024" version="1.1" xmlns="http://www.w3.org/2000/svg" p-id="1847" xmlns:xlink="http://www.w3.org/1999/xlink" width="216.9921875" height="200"><defs><style type="text/css"></style></defs><path d="M741.178423 1023.91148H124.459198V96.57538A96.75242 96.75242 0 0 1 221.300138 0h423.302905a96.6639 96.6639 0 0 1 96.57538 96.57538z m-566.528354-50.190871h516.337483V96.57538a46.473029 46.473029 0 0 0-46.384509-46.384509H221.300138a46.473029 46.473029 0 0 0-46.473029 46.384509z" p-id="1848"></path><path d="M1085.078838 1023.91148H25.051176a25.139696 25.139696 0 0 1 0-50.190871h1060.027662a25.139696 25.139696 0 1 1 0 50.190871z" p-id="1849"></path><path d="M1007.26971 1024H771.983402a25.139696 25.139696 0 0 1 0-50.190871h185.183956V367.004149a7.701245 7.701245 0 0 0-7.612725-7.612724H798.008299a25.139696 25.139696 0 0 1 0-50.190872h151.546334a57.803596 57.803596 0 0 1 57.715077 57.803596zM613.266943 295.568465H264.409405a25.139696 25.139696 0 1 1 0-50.190872h348.857538a25.139696 25.139696 0 0 1 0 50.190872zM613.266943 526.782849H264.409405a25.139696 25.139696 0 1 1 0-50.190871h348.857538a25.139696 25.139696 0 0 1 0 50.190871zM613.266943 758.085754H264.409405a25.139696 25.139696 0 1 1 0-50.190872h348.857538a25.139696 25.139696 0 0 1 0 50.190872z" p-id="1850"></path></svg>